<svg xmlns="http://www.w3.org/2000/svg" xmlns:xlink="http://www.w3.org/1999/xlink" preserveAspectRatio="xMidYMid" width="2000" height="4487" viewBox="0 0 2000 4487">
  <defs>
    <style>

      .cls-2 {
        fill: #29292b;
      }
    </style>
  </defs>
  <path d="M0.000,702.000 C0.000,702.000 0.000,1664.000 0.000,1664.000 C0.000,1664.000 560.000,2727.000 560.000,2727.000 C560.000,2727.000 0.000,3790.000 0.000,3790.000 C0.000,3790.000 0.000,4487.000 0.000,4487.000 C0.000,4487.000 141.000,4488.000 141.000,4488.000 C141.000,4488.000 815.000,3208.000 815.000,3208.000 C815.000,3208.000 1489.000,4487.000 1489.000,4487.000 C1489.000,4487.000 2000.000,4487.000 2000.000,4487.000 C2000.000,4487.000 1069.000,2728.000 1069.000,2728.000 C1069.000,2728.000 1999.000,964.000 1999.000,964.000 C1999.000,964.000 2000.000,0.000 2000.000,0.000 C2000.000,0.000 815.000,2245.000 815.000,2245.000 C815.000,2245.000 0.000,702.000 0.000,702.000 Z" id="path-1" class="cls-2" fill-rule="evenodd"/>
</svg>
